<svg xmlns="http://www.w3.org/2000/svg" viewBox="0 0 32 32" fill="none" stroke="#34D399" stroke-width="2" stroke-linecap="round" stroke-linejoin="round" aria-hidden="true">
  <path d="M16 3c-4.4 0-7 3.6-7 8v6c0 1.5.8 2.6 2 3.2V22h10v-1.8c1.2-.6 2-1.7 2-3.2v-6c0-4.4-2.6-8-7-8Z"/>
  <path d="M9 9 6 12M23 9l3 3"/>
  <circle cx="13" cy="14" r="1.3" fill="#34D399" stroke="none"/>
  <circle cx="19" cy="14" r="1.3" fill="#34D399" stroke="none"/>
  <path d="M11 22c0 3-1 5-2 6M14 22c0 3 0 5-.5 7M18 22c0 3 0 5 .5 7M21 22c0 3 1 5 2 6"/>
</svg>
